<svg width="36" height="36" viewBox="0 0 36 36" fill="none" xmlns="http://www.w3.org/2000/svg">
<circle cx="18" cy="18" r="18" fill="#7A1CAC"/>
<path fill-rule="evenodd" clip-rule="evenodd" d="M18.0001 25.5833C18.2654 25.5834 18.5215 25.6808 18.7198 25.8571C18.9181 26.0334 19.0448 26.2764 19.0758 26.5399L19.0834 26.6667V27.75C19.0831 28.0261 18.9774 28.2917 18.7878 28.4925C18.5983 28.6933 18.3392 28.8141 18.0636 28.8303C17.7879 28.8464 17.5165 28.7568 17.3048 28.5795C17.093 28.4023 16.9569 28.1509 16.9243 27.8767L16.9167 27.75V26.6667C16.9167 26.3793 17.0309 26.1038 17.234 25.9006C17.4372 25.6975 17.7128 25.5833 18.0001 25.5833ZM12.6376 23.3625C12.8407 23.5656 12.9548 23.8411 12.9548 24.1284C12.9548 24.4157 12.8407 24.6912 12.6376 24.8943L11.8717 25.6602C11.7717 25.7637 11.6522 25.8462 11.52 25.903C11.3878 25.9598 11.2457 25.9897 11.1018 25.9909C10.958 25.9922 10.8154 25.9648 10.6822 25.9103C10.5491 25.8558 10.4281 25.7754 10.3264 25.6737C10.2247 25.5719 10.1442 25.451 10.0898 25.3179C10.0353 25.1847 10.0079 25.0421 10.0091 24.8982C10.0104 24.7544 10.0403 24.6122 10.0971 24.4801C10.1538 24.3479 10.2364 24.2283 10.3398 24.1284L11.1057 23.3625C11.3089 23.1594 11.5844 23.0453 11.8717 23.0453C12.1589 23.0453 12.4344 23.1594 12.6376 23.3625ZM24.8944 23.3625L25.6603 24.1284C25.8577 24.3327 25.9669 24.6064 25.9644 24.8904C25.9619 25.1745 25.848 25.4462 25.6471 25.647C25.4463 25.8479 25.1746 25.9618 24.8905 25.9643C24.6065 25.9668 24.3328 25.8576 24.1285 25.6602L23.3626 24.8943C23.1652 24.69 23.056 24.4164 23.0585 24.1323C23.061 23.8483 23.1749 23.5765 23.3758 23.3757C23.5766 23.1748 23.8483 23.0609 24.1324 23.0584C24.4164 23.056 24.6901 23.1652 24.8944 23.3625ZM18.6685 7.16666C19.1967 7.16654 19.7067 7.35937 20.1027 7.70889C20.4987 8.05841 20.7534 8.54055 20.8189 9.06466L21.2306 12.358C22.4739 13.0701 23.4471 14.173 23.9988 15.4953C24.5506 16.8177 24.6499 18.2852 24.2815 19.6698C23.9131 21.0544 23.0975 22.2785 21.9615 23.1517C20.8255 24.025 19.4329 24.4984 18.0001 24.4984C16.5673 24.4984 15.1746 24.025 14.0387 23.1517C12.9027 22.2785 12.0871 21.0544 11.7187 19.6698C11.3502 18.2852 11.4496 16.8177 12.0013 15.4953C12.5531 14.173 13.5263 13.0701 14.7696 12.358L15.1812 9.06466C15.2467 8.54055 15.5014 8.05841 15.8974 7.70889C16.2934 7.35937 16.8035 7.16654 17.3317 7.16666H18.6685ZM18.0001 13.6667C16.8508 13.6667 15.7486 14.1232 14.936 14.9359C14.1233 15.7485 13.6667 16.8507 13.6667 18C13.6667 19.1493 14.1233 20.2515 14.936 21.0641C15.7486 21.8768 16.8508 22.3333 18.0001 22.3333C19.1494 22.3333 20.2516 21.8768 21.0642 21.0641C21.8769 20.2515 22.3334 19.1493 22.3334 18C22.3334 16.8507 21.8769 15.7485 21.0642 14.9359C20.2516 14.1232 19.1494 13.6667 18.0001 13.6667ZM9.33341 16.9167C9.62073 16.9167 9.89628 17.0308 10.0994 17.234C10.3026 17.4371 10.4167 17.7127 10.4167 18C10.4167 18.2873 10.3026 18.5629 10.0994 18.766C9.89628 18.9692 9.62073 19.0833 9.33341 19.0833H8.25008C7.96276 19.0833 7.68721 18.9692 7.48405 18.766C7.28088 18.5629 7.16675 18.2873 7.16675 18C7.16675 17.7127 7.28088 17.4371 7.48405 17.234C7.68721 17.0308 7.96276 16.9167 8.25008 16.9167H9.33341ZM27.7501 16.9167C28.0374 16.9167 28.3129 17.0308 28.5161 17.234C28.7193 17.4371 28.8334 17.7127 28.8334 18C28.8334 18.2873 28.7193 18.5629 28.5161 18.766C28.3129 18.9692 28.0374 19.0833 27.7501 19.0833H26.6667C26.3794 19.0833 26.1039 18.9692 25.9007 18.766C25.6975 18.5629 25.5834 18.2873 25.5834 18C25.5834 17.7127 25.6975 17.4371 25.9007 17.234C26.1039 17.0308 26.3794 16.9167 26.6667 16.9167H27.7501ZM25.6603 10.3408C25.8634 10.544 25.9775 10.8195 25.9775 11.1067C25.9775 11.394 25.8634 11.6695 25.6603 11.8727L24.8944 12.6386C24.7945 12.742 24.6749 12.8246 24.5428 12.8813C24.4106 12.9381 24.2684 12.968 24.1246 12.9693C23.9808 12.9705 23.8381 12.9431 23.705 12.8886C23.5718 12.8342 23.4509 12.7537 23.3492 12.652C23.2474 12.5503 23.167 12.4293 23.1125 12.2962C23.0581 12.1631 23.0306 12.0204 23.0319 11.8766C23.0331 11.7327 23.063 11.5906 23.1198 11.4584C23.1766 11.3262 23.2591 11.2067 23.3626 11.1067L24.1285 10.3408C24.3317 10.1377 24.6072 10.0236 24.8944 10.0236C25.1817 10.0236 25.4572 10.1377 25.6603 10.3408ZM11.8717 10.3408L12.6376 11.1067C12.83 11.312 12.9351 11.584 12.9305 11.8654C12.926 12.1467 12.8121 12.4152 12.6131 12.6141C12.4141 12.813 12.1455 12.9266 11.8642 12.931C11.5828 12.9353 11.3108 12.8301 11.1057 12.6375L10.3398 11.8716C10.1474 11.6663 10.0423 11.3943 10.0469 11.1129C10.0514 10.8316 10.1653 10.5631 10.3643 10.3642C10.5633 10.1654 10.8319 10.0517 11.1132 10.0473C11.3946 10.043 11.6666 10.1482 11.8717 10.3408ZM18.6685 9.33332H17.3317L17.0608 11.5H18.9393L18.6685 9.33332Z" fill="white"/>
</svg>
