<svg width="40" height="40" viewBox="0 0 40 40" fill="none" xmlns="http://www.w3.org/2000/svg">
<path d="M13.33 26.6667H19.9967M13.33 18.3333H26.6633M12.5 5.83333C9.90666 5.91166 8.36166 6.19999 7.29166 7.26999C5.82666 8.73666 5.82666 11.095 5.82666 15.8133V26.6567C5.82666 31.3767 5.82666 33.735 7.29166 35.2017C8.75499 36.6667 11.1133 36.6667 15.8267 36.6667H24.16C28.875 36.6667 31.2317 36.6667 32.695 35.2C34.1617 33.735 34.1617 31.3767 34.1617 26.6567V15.8133C34.1617 11.0967 34.1617 8.73666 32.695 7.26999C31.6267 6.19999 30.08 5.91166 27.4867 5.83333" stroke="white" stroke-width="1.5" stroke-linecap="round" stroke-linejoin="round"/>
<path d="M12.4934 6.25C12.4934 4.63999 13.8001 3.33333 15.4101 3.33333H24.5767C25.3503 3.33333 26.0922 3.64062 26.6391 4.1876C27.1861 4.73458 27.4934 5.47645 27.4934 6.25C27.4934 7.02354 27.1861 7.76541 26.6391 8.31239C26.0922 8.85937 25.3503 9.16666 24.5767 9.16666H15.4101C14.6365 9.16666 13.8947 8.85937 13.3477 8.31239C12.8007 7.76541 12.4934 7.02354 12.4934 6.25Z" stroke="white" stroke-width="1.5" stroke-linecap="round" stroke-linejoin="round"/>
</svg>
