<svg width="310" height="69" viewBox="0 0 310 69" fill="none" xmlns="http://www.w3.org/2000/svg">
<path d="M2 65C0.89543 65 0 65.8954 0 67C0 68.1046 0.89543 69 2 69V65ZM309.5 1.96826C309.482 0.863828 308.573 -0.0172787 307.468 0.000251889L289.471 0.28593C288.366 0.303461 287.485 1.21299 287.503 2.31742C287.52 3.42185 288.43 4.30296 289.534 4.28543L305.532 4.03149L305.786 20.0295C305.803 21.1339 306.713 22.015 307.817 21.9975C308.922 21.9799 309.803 21.0704 309.785 19.966L309.5 1.96826ZM257.408 46.4079L255.994 47.8221L257.408 46.4079ZM264.535 46.3513L263.098 44.9598L264.535 46.3513ZM243.47 39.2669L244.828 40.7348L243.47 39.2669ZM250.401 39.4012L251.815 37.9869L250.401 39.4012ZM214.937 65.6698L213.579 64.2019L214.937 65.6698ZM2 69H211.542V65H2V69ZM216.296 67.1377L244.828 40.7348L242.111 37.799L213.579 64.2019L216.296 67.1377ZM248.987 40.8154L255.994 47.8221L258.822 44.9937L251.815 37.9869L248.987 40.8154ZM265.971 47.7429L308.936 3.39159L306.064 0.60841L263.098 44.9598L265.971 47.7429ZM255.994 47.8221C258.758 50.5865 263.251 50.5509 265.971 47.7429L263.098 44.9598C261.932 46.1632 260.007 46.1784 258.822 44.9937L255.994 47.8221ZM244.828 40.7348C246.011 39.6402 247.847 39.6758 248.987 40.8154L251.815 37.9869C249.156 35.3279 244.871 35.2449 242.111 37.799L244.828 40.7348ZM211.542 69C213.304 69 215.002 68.335 216.296 67.1377L213.579 64.2019C213.025 64.715 212.297 65 211.542 65V69Z" fill="url(#paint0_linear_23_59)"/>
<defs>
<linearGradient id="paint0_linear_23_59" x1="0.30407" y1="74.5782" x2="212.646" y2="74.5782" gradientUnits="userSpaceOnUse">
<stop stop-color="white"/>
<stop offset="1" stop-color="#999999"/>
</linearGradient>
</defs>
</svg>
